<?xml version="1.0" encoding="utf-8"?>
<!-- Generator: Adobe Illustrator 16.0.0, SVG Export Plug-In . SVG Version: 6.00 Build 0)  -->
<!DOCTYPE svg PUBLIC "-//W3C//DTD SVG 1.0//EN" "http://www.w3.org/TR/2001/REC-SVG-20010904/DTD/svg10.dtd">
<svg version="1.0" id="Layer_1" xmlns="http://www.w3.org/2000/svg" xmlns:xlink="http://www.w3.org/1999/xlink" x="0px" y="0px"
	 width="83.327px" height="92.524px" viewBox="10.771 8.942 83.327 92.524" enable-background="new 10.771 8.942 83.327 92.524"
	 xml:space="preserve">
<g id="Rappler_Basic_Logo.psd">
	<g>
		<defs>
			<rect id="SVGID_1_" x="-2.891" y="-5" width="113.438" height="121"/>
		</defs>
		<clipPath id="SVGID_2_">
			<use xlink:href="#SVGID_1_"  overflow="visible"/>
		</clipPath>
	</g>
</g>
<g id="Rappler_Basic_Logo">
	<g id="Shape_1">
		<g>
			<path fill="#E76229" d="M46.694,75.842c-9.728-2.224-16.896-7.586-21.9-14.617c-2.852-4.008-5.091-8.833-5.987-14.827
				c-0.958-6.405,0.203-12.936,2.101-17.843c-2.664,5.023-4.434,10.546-3.939,17.531c0.229,3.245,0.99,6.186,1.891,8.843
				c0.907,2.676,1.993,5.092,3.414,7.387c5.091,8.214,13.911,13.341,26.364,14.148c0.863,0.057,1.982,0.241,2.626,0.104
				c-0.051,0.013-0.84-0.112-1.208-0.154C48.844,76.275,47.722,76.076,46.694,75.842z M23.691,55.553
				c3.263,7.113,9.388,11.941,16.228,15.139c-3.504-12.935-7.011-25.863-10.504-38.808c-1.639-0.475-3.135-1.091-4.779-1.561
				c-2.051,2.971-3.42,7.447-3.572,12.225C20.912,47.371,22.056,51.991,23.691,55.553z M54.15,45.565
				c2.326-1.111,5.043-3.182,5.043-6.45c0-1.99-0.967-3.935-1.996-5.098c-1.146-1.293-3.008-2.134-5.252-2.029
				c-3.906,0.183-7.247,1.81-10.819,2.549c1.324,4.411,2.559,8.911,3.834,13.369c1.595-0.304,3.201-0.75,4.674-1.092
				C51.225,46.444,52.725,46.247,54.15,45.565z M78.992,60.704c2.896-5.146,5.025-11.356,4.675-19.04
				c-0.331-7.22-3.285-12.917-6.513-17.323c-3.305-4.51-7.582-8.302-13.131-10.768c-5.299-2.356-13.406-3.551-20.481-1.821
				c15.217-1.151,25.515,4.862,31.407,13.577c2.943,4.355,5.624,9.557,6.617,15.97c1.104,7.133-0.366,14.316-2.994,18.885
				c-0.915-0.933-1.947-1.748-2.73-2.81c3.741-5.467,4.016-16.269,1.682-23.41c-2.24-6.851-7.26-12.002-13.025-15.293
				c-2.941-1.68-6.604-3.027-10.661-3.538c-4.34-0.546-8.91-0.134-12.604,1.093c-6.477,2.149-11.513,6.518-15.125,11.496
				c-0.254,0.351-0.62,0.671-0.578,0.988c5.872-1.531,11.803-3.104,17.751-4.682c2.936-0.779,5.904-1.79,9.296-1.925
				c7.276-0.291,12.097,2.875,14.81,7.491c1.393,2.369,2.521,5.18,2.627,8.531c0.116,3.702-0.975,6.382-2.469,8.688
				c-1.471,2.267-3.348,4.076-5.673,5.514c7.478,5.94,15.323,11.749,22.847,17.583c0.221,0.171,0.512,0.301,0.631,0.572
				c-12.576-4.434-25.324-8.973-37.867-13.267c1.558,4.96,2.841,10.192,4.464,15.086c5.581,0.15,9.446-1.845,13.077-3.797
				c8.967,2.009,17.971,3.979,26.996,5.931C87.918,70.016,83.213,65.25,78.992,60.704z M15.078,40.26
				c0.809-9.104,4.417-16.221,8.56-21.745c-2.611,2.643-5.216,5.625-7.195,9.155c-1.95,3.48-3.518,7.678-3.781,12.589
				c-0.289,5.379,0.791,9.955,2.311,13.941c1.507,3.952,3.548,7.479,5.935,10.352C17.367,58.191,14.177,50.39,15.078,40.26z
				 M82.616,59.508c3.657-5.22,6.771-13.372,4.727-22.109c-1.739-7.439-6.166-13.066-10.924-17.219
				c4.021,4.465,7.515,10.083,8.929,17.271C86.887,45.274,85.279,53.929,82.616,59.508z"/>
		</g>
	</g>
	<g id="Shape_2">
		<g>
			<path fill="#475764" d="M30.089,86.161c-1.653,3.801-3.295,7.614-4.878,11.485c0.839,0,1.678,0,2.518,0
				c0.381-0.842,0.659-1.789,1.102-2.569c1.591,0,3.182,0,4.773,0c0.302,0.887,0.72,1.657,0.997,2.569c0.874,0,1.748,0,2.623,0
				c-1.556-3.881-3.271-7.604-4.826-11.485C31.627,86.161,30.858,86.161,30.089,86.161z M29.669,92.874
				c0.477-1.235,1.03-2.396,1.469-3.671c0.611,1.119,0.982,2.479,1.573,3.617C31.802,92.943,30.666,92.84,29.669,92.874z
				 M39.11,86.266c-0.066,0.021-0.107,0.068-0.105,0.157c0.035,3.726-0.069,7.588,0.052,11.226c0.822,0,1.644,0,2.465,0
				c0.036-1.119-0.069-2.379,0.052-3.409c3.505,0.299,6.196-0.722,6.452-3.462C48.488,85.816,43.831,86.126,39.11,86.266z
				 M41.522,91.982c0-1.102,0-2.203,0-3.305c-0.004-0.074-0.009-0.147,0.052-0.156c1.671,0,3.261-0.198,3.776,0.892
				C46.365,91.552,43.788,92.395,41.522,91.982z M49.967,86.266c-0.062,0.01-0.057,0.084-0.052,0.157c0,3.741,0,7.483,0,11.226
				c0.822,0,1.643,0,2.465,0c0.122-0.797,0.013-2.697,0.053-3.409c2.336,0.085,4.227-0.032,5.456-1.261
				c1.325-1.324,1.4-4.156,0-5.56C56.365,85.898,53.075,86.287,49.967,86.266z M56.104,91.301c-0.697,0.973-2.178,0.579-3.619,0.734
				c-0.125-0.833-0.016-2.596-0.052-3.514c1.262,0.057,2.561-0.179,3.303,0.313C56.486,89.333,56.643,90.552,56.104,91.301z
				 M63.289,95.393c0-3.043,0-6.084,0-9.127c-0.805,0-1.607,0-2.413,0c-0.065,0.021-0.106,0.068-0.104,0.157
				c0,3.708,0.002,7.691,0,11.226c2.729-0.035,5.596,0.068,8.234-0.054c0-0.716,0-1.434,0-2.149
				C67.205,95.322,65.178,95.427,63.289,95.393z M73.359,95.393c0-0.787,0-1.574,0-2.36c1.8,0,3.602,0,5.402,0
				c-0.023-0.757,0.049-1.734-0.054-2.255c-1.767-0.035-3.671,0.068-5.351-0.053c0-0.752,0-1.504,0-2.256
				c2.029-0.033,4.195,0.069,6.137-0.053c0.011-0.709-0.016-1.604,0-2.15c-2.85,0-5.699,0-8.549,0
				c-0.122,3.689-0.018,7.605-0.053,11.383c2.885,0,5.77,0,8.653,0c0-0.734,0-1.469,0-2.203
				C77.503,95.409,75.316,95.516,73.359,95.393z M20.176,93.871c2.077-0.404,3.67-1.534,3.724-3.829
				c0.118-5.019-6.128-3.577-10.909-3.776c0.22,0.394,1.033,0.646,1.363,1.103c0,3.427,0,6.854,0,10.28c0.839,0,1.679,0,2.518,0
				c0-1.207,0-2.414,0-3.619c2.575,1.865,5.118,3.764,7.657,5.664c0.057,0.021,0.126,0.063,0.052,0
				C23.152,97.713,21.573,95.884,20.176,93.871z M16.872,91.773c0-1.086,0-2.168,0-3.252c1.673,0.052,3.834-0.326,4.353,0.892
				c0.141,0.33,0.22,0.953,0,1.469C20.675,92.17,18.704,91.68,16.872,91.773z M87.939,93.871c3.1-0.063,4.881-4.081,2.885-6.348
				c-1.797-2.039-6.327-1.008-10.069-1.258c0.228,0.385,1.04,0.637,1.363,1.102c0.034,3.377-0.069,7.165,0.052,10.279
				c0.822,0,1.645,0,2.467,0c0-1.207,0-2.412,0-3.619c2.614,1.826,5.223,3.938,7.762,5.666
				C90.902,97.761,89.37,95.867,87.939,93.871z M84.637,91.773c0-1.086,0-2.168,0-3.252c1.402,0.114,3.029-0.271,3.881,0.313
				c0.646,0.444,0.777,1.358,0.473,2.046C88.384,92.238,86.287,91.648,84.637,91.773z"/>
		</g>
	</g>
</g>
</svg>
